<svg version="1.2" xmlns="http://www.w3.org/2000/svg" viewBox="0 0 6576 5783" width="34" height="30">
	<title>LOGO VETORIZADA</title>
	<defs>
		<clipPath clipPathUnits="userSpaceOnUse" id="cp1">
			<path d="m0 0h6576v5783h-6576z"/>
		</clipPath>
	</defs>
	<style>
		.s0 { fill: #2ab566 } 
		.s1 { fill: #ffffff } 
		.s2 { fill: #ffffff;stroke: #ffffff;stroke-miterlimit:22.92558479309082;stroke-width: 1.1 } 
	</style>
	<g id="Page 1" clip-path="url(#cp1)">
		<path id="Path 1" fill-rule="evenodd" class="s0" d="m2313.2 3895.9c0.4-107.6 16-202.3-29.5-277.5-248.4-410.2-35.8-761.2-22.8-737.8l60.5-22.2c23.9-7.1 48.5-14.2 67.5-20.1l1.6 1072.8c55.7 85.1 288.5 99.6 397.1 103.5l-0.3-465.9c91.1-21.8 163.3-18.7 248.6-56.6 62.8-27.9 123.3-88.7 152.8-94.8 113.7-23.2-53.3 88.3-114.1 118.6-290 144.8-235.7-103.7-241.2 489.8 405.1 60.4 938.5-370.7 1004.7-915.6 72.9-599.7-318.9-1027.1-781.1-1145.5-598.9-153.4-1077.6 240.5-1232.1 642.7-100.2 260.7-90.3 547.9 16.1 798.6 89.3 210.4 283.4 424.1 472.2 510z"/>
		<path id="Path 2" fill-rule="evenodd" class="s0" d="m3583.9 1919.6l706.8-0.1c50.2 99.2 121.8 215.4 180.9 315.6 50.2 85.1 135.7 253.6 188.6 315.5 45.2-49.8 149-251.8 198.7-337.8 33.3-57.6 66-114 98-175.1 39.9-76.1 31.9-117.7 137.4-117.7l628-1.8c-24.5 62.5-120.3 198.2-159 259.6l-485.3 752.5c49 120.6 636.9 939.6 696.4 1084.7l-712.2-5.4c-93.4-110.8-325.3-550.6-387.5-627.8l-35.9-36.5c-30.4 85-151 252-203.3 340.9-63.8 108.4-131 231.1-209.4 328.4l-702.3 0.3c31.7-82.2 132.7-218.4 179.3-289.4 58.6-89.1 115-168.8 173.7-259.7l350-535.5c-26-82.9-598.6-904.7-642.9-1010.7zm-2830.6-23.8l660.7-0.7-0.5 1618.4 379.1 1.4c91.4 136.1 124.9 198 229.6 301 161.7 158.8 184.5 139.2 286 224.8l-1554.9 0.4z"/>
		<path id="Path 3" fill-rule="evenodd" class="s1" d="m3332.8 2183.4c305.4 202.1 258.8 609.1 76.7 782.4-116.4 110.6-366.8 186.1-563.1 90.3-189.7-92.5-325.3-333.2-276.3-454 58.5 29.4 13.5-11.3 52 130.5 32.5 119.9 133.1 231.4 247.5 284.4 187.2 86.7 413.4 9.4 513.8-93.3 107.2-109.6 175.4-347.9 78.3-531.3-158.5-299.3-378.7-190.1-403.5-282 73-36.5 218.8 36 274.6 73zm-917.1 453.5l20.2 97.5c-206.5 176.7-392.4 10.6-406.3-52.4 30.5 38.5 97.4 58.3 170.7 58.5 101.8 0.2 152.7-69.2 215.4-103.6z"/>
		<path id="Path 5" fill-rule="evenodd" class="s2" d="m2433.5 2259.8c20.5 0 37.2 16.7 37.2 37.3 0 20.6-16.7 37.3-37.2 37.3-20.6 0-37.3-16.7-37.3-37.3 0-20.6 16.7-37.3 37.3-37.3z"/>
	</g>
</svg>