<svg version="1.2" xmlns="http://www.w3.org/2000/svg" viewBox="0 0 6576 5783" width="500" height="440">
	<title>LOGO VETORIZADA</title>
	<defs>
		<clipPath clipPathUnits="userSpaceOnUse" id="cp1">
			<path d="m0 0h6576v5783h-6576z"/>
		</clipPath>
	</defs>
	<style>
		.s0 { fill: #2ab566 } 
		.s1 { fill: #ffffff } 
		.s2 { fill: #00ab4f } 
		.s3 { fill: #ffffff;stroke: #ffffff;stroke-miterlimit:22.92558479309082;stroke-width: 1.1 } 
	</style>
	<g id="Page 1" clip-path="url(#cp1)">
		<path id="Path 1" fill-rule="evenodd" class="s0" d="m2313.2 3895.9c0.4-107.6 16-202.3-29.5-277.5-248.4-410.2-35.8-761.2-22.8-737.8l60.5-22.2c23.9-7.1 48.5-14.2 67.5-20.1l1.6 1072.8c55.7 85.1 288.5 99.6 397.1 103.5l-0.3-465.9c91.1-21.8 163.3-18.7 248.6-56.6 62.8-27.9 123.3-88.7 152.8-94.8 113.7-23.2-53.3 88.3-114.1 118.6-290 144.8-235.7-103.7-241.2 489.8 405.1 60.4 938.5-370.7 1004.7-915.6 72.9-599.7-318.9-1027.1-781.1-1145.5-598.9-153.4-1077.6 240.5-1232.1 642.7-100.2 260.7-90.3 547.9 16.1 798.6 89.3 210.4 283.4 424.1 472.2 510z"/>
		<path id="Path 2" fill-rule="evenodd" class="s0" d="m3583.9 1919.6l706.8-0.1c50.2 99.2 121.8 215.4 180.9 315.6 50.2 85.1 135.7 253.6 188.6 315.5 45.2-49.8 149-251.8 198.7-337.8 33.3-57.6 66-114 98-175.1 39.9-76.1 31.9-117.7 137.4-117.7l628-1.8c-24.5 62.5-120.3 198.2-159 259.6l-485.3 752.5c49 120.6 636.9 939.6 696.4 1084.7l-712.2-5.4c-93.4-110.8-325.3-550.6-387.5-627.8l-35.9-36.5c-30.4 85-151 252-203.3 340.9-63.8 108.4-131 231.1-209.4 328.4l-702.3 0.3c31.7-82.2 132.7-218.4 179.3-289.4 58.6-89.1 115-168.8 173.7-259.7l350-535.5c-26-82.9-598.6-904.7-642.9-1010.7zm-2830.6-23.8l660.7-0.7-0.5 1618.4 379.1 1.4c91.4 136.1 124.9 198 229.6 301 161.7 158.8 184.5 139.2 286 224.8l-1554.9 0.4z"/>
		<path id="Path 3" fill-rule="evenodd" class="s1" d="m3332.8 2183.4c305.4 202.1 258.8 609.1 76.7 782.4-116.4 110.6-366.8 186.1-563.1 90.3-189.7-92.5-325.3-333.2-276.3-454 58.5 29.4 13.5-11.3 52 130.5 32.5 119.9 133.1 231.4 247.5 284.4 187.2 86.7 413.4 9.4 513.8-93.3 107.2-109.6 175.4-347.9 78.3-531.3-158.5-299.3-378.7-190.1-403.5-282 73-36.5 218.8 36 274.6 73zm-917.1 453.5l20.2 97.5c-206.5 176.7-392.4 10.6-406.3-52.4 30.5 38.5 97.4 58.3 170.7 58.5 101.8 0.2 152.7-69.2 215.4-103.6z"/>
		<path id="Path 4" class="s2" d="m3506.4 4450.1v-319.1h141.4c28.5 0 50.1 2.9 64.9 8.6q22.2 8.6 35.4 30.3c8.9 14.5 13.2 30.5 13.2 48.1 0 22.6-7.3 41.7-21.9 57.2-14.7 15.6-37.3 25.4-67.9 29.6 11.2 5.4 19.7 10.7 25.5 15.9 12.3 11.3 24 25.5 34.9 42.5l55.2 86.9h-52.7l-42.2-66.4c-12.3-19.2-22.5-33.9-30.4-44-8-10.2-15.2-17.3-21.5-21.4-6.2-4-12.7-6.8-19.2-8.4-4.8-1-12.6-1.5-23.5-1.5h-48.9v141.7zm42.4-178.3h90.6c19.3 0 34.3-2 45.2-6 10.8-3.9 19.1-10.3 24.6-19.2 5.7-8.7 8.5-18.2 8.5-28.6 0-15.1-5.4-27.5-16.3-37.3-11-9.7-28.2-14.5-51.8-14.5h-100.8zm403.4 178.3v-319.2h230.5v37.4h-188.2v98.1h176.1v37.5h-176.1v108.7h195.7v37.5zm647.7-112l42.3 10.7c-8.8 34.7-24.7 61.1-47.7 79.3-22.9 18.2-51 27.3-84.2 27.3-34.3 0-62.3-7-83.8-21-21.6-14-37.9-34.2-49.1-60.8-11.3-26.6-16.9-55-16.9-85.5 0-33.2 6.3-62.2 19-86.9q19.1-37.1 54.2-56.4c23.4-12.9 49.2-19.2 77.2-19.2 32 0 58.8 8.1 80.5 24.3 21.8 16.3 36.9 39.1 45.5 68.5l-41.5 9.8c-7.3-23.1-18.1-40.1-32.1-50.6-14.1-10.7-31.8-15.9-53.1-15.9-24.4 0-44.9 5.8-61.4 17.6-16.4 11.7-28 27.5-34.6 47.3q-10 29.8-10 61.3c0 27.1 3.9 50.8 11.8 71 7.9 20.3 20.1 35.4 36.8 45.4 16.6 10 34.6 15 54 15 23.6 0 43.5-6.8 59.9-20.4 16.3-13.7 27.4-33.9 33.2-60.8zm225.5 112v-319.2h42.4v319.2zm467.9-112l42.4 10.7c-8.9 34.7-24.8 61.1-47.7 79.3-23 18.2-51.1 27.3-84.3 27.3-34.3 0-62.2-7-83.8-21-21.5-14-37.9-34.2-49.1-60.8-11.2-26.6-16.9-55-16.9-85.5 0-33.2 6.3-62.2 19.1-86.9q19-37.1 54.1-56.4c23.4-12.9 49.2-19.2 77.3-19.2 31.9 0 58.8 8.1 80.5 24.3 21.7 16.3 36.9 39.1 45.4 68.5l-41.4 9.8c-7.4-23.1-18.2-40.1-32.2-50.6-14.1-10.7-31.7-15.9-53.1-15.9-24.4 0-44.9 5.8-61.3 17.6-16.4 11.7-28 27.5-34.6 47.3q-10.1 29.8-10.1 61.3c0 27.1 4 50.8 11.8 71 7.9 20.3 20.2 35.4 36.8 45.4 16.7 10 34.6 15 54 15 23.7 0 43.6-6.8 59.9-20.4 16.4-13.7 27.4-33.9 33.2-60.8zm216.7 112v-319.2h42.3v281.7h156.9v37.5zm297.4 0l122.5-319.2h46.4l130 319.2h-48.1l-36.9-96.8h-134.4l-34.7 96.8zm91.9-131.1h108.7l-33.2-88.5c-10.1-26.9-17.6-49.1-22.9-66.6-4.4 20.8-10.3 41.2-17.6 61.4z"/>
		<path id="Path 5" fill-rule="evenodd" class="s3" d="m2433.5 2259.8c20.5 0 37.2 16.7 37.2 37.3 0 20.6-16.7 37.3-37.2 37.3-20.6 0-37.3-16.7-37.3-37.3 0-20.6 16.7-37.3 37.3-37.3z"/>
	</g>
</svg>