<svg version="1.2" xmlns="http://www.w3.org/2000/svg" viewBox="0 0 500 440" width="500" height="440">
	<title>lox-logo</title>
	<defs>
		<clipPath clipPathUnits="userSpaceOnUse" id="cp1">
			<path d="m0 0.15h500v439.71h-500z"/>
		</clipPath>
	</defs>
	<style>
		.s0 { fill: #ffffff } 
		.s1 { fill: #0eae58 } 
		.s2 { fill: #ffffff;stroke: #ffffff;stroke-miterlimit:100 } 
		.s3 { fill: #0eae58;stroke: #ffffff;stroke-miterlimit:22.92558479309082;stroke-width: .4 } 
	</style>
	<g id="Clip-Path: Page 1" clip-path="url(#cp1)">
		<g id="Page 1">
			<path id="Path 1" fill-rule="evenodd" class="s0" d="m175.9 291.4c0-8.2 1.2-15.4-2.3-21.1-18.8-31.2-2.7-57.9-1.7-56.1l4.6-1.7c1.8-0.6 3.7-1.1 5.1-1.5l0.2 81.5c4.2 6.5 21.9 7.6 30.2 7.9l-0.1-35.4c7-1.7 12.4-1.4 18.9-4.3 4.8-2.2 9.4-6.8 11.6-7.2 8.7-1.8-4 6.7-8.6 9-22.1 11-17.9-7.9-18.4 37.2 30.8 4.6 71.4-28.2 76.4-69.6 5.6-45.6-24.2-78.1-59.4-87.1-45.5-11.7-81.9 18.3-93.6 48.9-7.7 19.8-6.9 41.6 1.2 60.7 6.8 16 21.5 32.2 35.9 38.8z"/>
			<path id="Path 2" fill-rule="evenodd" class="s0" d="m272.5 146.1h53.7c3.9 7.5 9.3 16.4 13.8 24 3.8 6.5 10.3 19.3 14.3 24 3.5-3.8 11.4-19.2 15.1-25.7 2.6-4.4 5.1-8.7 7.5-13.3 3-5.8 2.4-9 10.4-9l47.8-0.1c-1.9 4.8-9.2 15.1-12.1 19.7l-36.9 57.3c3.7 9.1 48.4 71.4 53 82.4l-54.2-0.4c-7.1-8.4-24.7-41.8-29.5-47.7l-2.7-2.8c-2.3 6.5-11.5 19.2-15.5 25.9-4.8 8.3-9.9 17.6-15.9 25h-53.4c2.4-6.2 10.1-16.6 13.7-22 4.4-6.8 8.7-12.8 13.2-19.7l26.6-40.7c-2-6.3-45.5-68.8-48.9-76.9zm-215.2-1.8l50.2-0.1v123.1l28.8 0.1c6.9 10.4 9.5 15.1 17.5 22.9 12.3 12.1 14 10.6 21.7 17.1h-118.2z"/>
			<path id="Path 3" fill-rule="evenodd" class="s1" d="m253.4 166.2c23.2 15.3 19.7 46.3 5.8 59.5-8.8 8.4-27.9 14.1-42.8 6.8-14.4-7-24.7-25.3-21-34.5 4.5 2.2 1-0.9 4 9.9 2.4 9.1 10.1 17.6 18.8 21.6 14.2 6.6 31.4 0.8 39.1-7 8.1-8.4 13.3-26.5 5.9-40.4-12-22.8-28.8-14.5-30.7-21.5 5.6-2.8 16.7 2.8 20.9 5.6zm-69.7 34.4l1.5 7.5c-15.7 13.4-29.8 0.8-30.9-4 2.3 2.9 7.4 4.4 13 4.4 7.7 0 11.6-5.2 16.4-7.9z"/>
			<path id="Path 4" class="s2" d="m266.6 338.5v-24.3h10.8q3.2 0.1 4.9 0.7 1.7 0.7 2.7 2.3 1 1.7 1 3.7 0 2.5-1.7 4.3-1.7 1.8-5.1 2.3 1.2 0.6 1.9 1.2 1.4 1.3 2.7 3.2l4.1 6.6h-4l-3.2-5q-1.4-2.2-2.3-3.4-0.9-1.1-1.6-1.6-0.7-0.5-1.5-0.6-0.5-0.2-1.8-0.2h-3.7v10.8zm3.2-13.5h6.9q2.2 0 3.5-0.5 1.2-0.4 1.8-1.5 0.7-1 0.7-2.1 0-1.8-1.3-2.9-1.2-1.1-3.9-1.1h-7.7zm30.7 13.6v-24.3h17.5v2.9h-14.3v7.4h13.4v2.9h-13.4v8.2h14.9v2.9zm49.3-8.5l3.2 0.8q-1 3.9-3.6 6-2.7 2.1-6.5 2.1-3.9 0-6.3-1.6-2.5-1.6-3.8-4.6-1.2-3.1-1.2-6.5 0-3.8 1.4-6.6 1.5-2.9 4.1-4.3 2.7-1.5 5.9-1.5 3.6 0 6.1 1.9 2.5 1.8 3.5 5.2l-3.2 0.7q-0.8-2.6-2.4-3.8-1.6-1.3-4.1-1.2-2.7 0-4.6 1.3-1.9 1.3-2.7 3.6-0.7 2.3-0.7 4.6 0 3.1 0.9 5.4 0.9 2.4 2.8 3.5 1.9 1.1 4.1 1.1 2.7 0 4.5-1.5 1.9-1.6 2.6-4.6zm17.1 8.5v-24.3h3.2v24.3zm35.6-8.5l3.2 0.8q-1 3.9-3.6 6-2.6 2.1-6.4 2.1-3.9 0-6.4-1.6-2.4-1.6-3.7-4.6-1.3-3.1-1.3-6.5 0-3.8 1.5-6.6 1.4-2.9 4.1-4.3 2.6-1.5 5.8-1.5 3.7 0 6.2 1.9 2.4 1.8 3.4 5.2l-3.1 0.7q-0.9-2.6-2.5-3.8-1.6-1.3-4-1.2-2.8 0-4.7 1.3-1.8 1.3-2.6 3.6-0.8 2.3-0.8 4.6 0 3.1 0.9 5.4 0.9 2.4 2.8 3.5 1.9 1.1 4.1 1.1 2.7 0 4.6-1.5 1.8-1.6 2.5-4.6zm16.5 8.5v-24.3h3.2v21.4h11.9v2.9zm22.6 0l9.4-24.3h3.5l9.9 24.3h-3.7l-2.8-7.4h-10.2l-2.7 7.4zm7-10h8.3l-2.5-6.7q-1.2-3.1-1.8-5.1-0.5 2.4-1.3 4.7z"/>
			<path id="Path 5" fill-rule="evenodd" class="s3" d="m185 172c1.6 0 2.9 1.2 2.9 2.8 0 1.6-1.3 2.8-2.9 2.8-1.5 0-2.8-1.2-2.8-2.8 0-1.6 1.3-2.8 2.8-2.8z"/>
		</g>
	</g>
</svg>